<svg height="496pt" viewBox="0 -16 496.00001 496" width="496pt" xmlns="http://www.w3.org/2000/svg"><path d="m480 347.777344h-32c8.839844 0 16-7.167969 16-15.992188 0-8.824218-7.167969-16.007812-16-16.007812h-32c8.832031 0 16.007812-7.160156 16-16 0-8.832032-7.167969-15.992188-16-15.992188l-48-.015625c8.839844.015625 16.007812-7.152343 16-15.992187 0-8.832032-7.160156-16-16-16h88c8.839844 0 16-7.167969 16-16-.007812-8.824219-7.167969-16.007813-16-15.992188l-40-.015625c8.832031.007813 16.007812-7.152343 16-15.992187 0-8.832032-7.160156-16-16-16h-16c8.839844 0 16-7.160156 16-15.992188 0-8.832031-7.167969-16.007812-16-16.007812h80c8.832031 0 16.007812-7.160156 16-16 0-8.832032-7.167969-15.992188-16-15.984375l-40.015625-.007813c8.839844-.015625 16.007813-7.167968 16.007813-16.007812 0-8.832032-7.167969-16-16.007813-16h-23.984375c8.839844 0 16-7.167969 16-15.992188 0-8.824218-7.167969-16.007812-16-16l-24-.007812c8.832031 0 16-7.160156 16-16 0-8.832032-7.167969-16-16-16h-240c-8.832031 0-15.992188 7.167968-15.992188 16-.007812 8.839844 7.160157 16 15.992188 16l-56 .007812c-8.832031-.007812-16 7.167969-16 16 0 8.832032 7.167969 15.992188 16 15.992188h-15.992188c-8.839843 0-16 7.167968-16.007812 16 0 8.839844 7.167969 15.992187 16.007812 16.007812l47.992188-.015625c-8.832031.015625-16.007812 7.175781-16.007812 16.007813.007812 8.839844 7.167968 16 16.007812 16h-88c-8.832031 0-16 7.167968-15.992188 16.007812-.007812 8.832032 7.160157 15.992188 15.992188 15.992188h40.007812c-8.839843 0-16 7.167968-16 16-.007812 8.839844 7.160157 15.992187 15.992188 16l-40 .007812c-8.832031-.007812-16 7.167969-16 15.984375 0 8.855469 7.167969 16.007813 16 16.007813h-15.992188c-8.839843 0-16.007812 7.167968-16.015624 16.007812.007812 8.832032 7.175781 15.992188 16.007812 16l40-.015625c-8.832031.015625-16 7.175781-16 16.007813 0 8.839844 7.167969 16 16 16l-16 .007812c-8.832031-.007812-16 7.167969-16 16 0 8.832032 7.167969 15.992188 16 15.992188h80.007812c-8.839843 0-16.007812 7.167968-16.007812 16 0 8.839844 7.167969 15.992187 16.007812 16.007812h-32.007812c-8.832031.007813-15.992188 7.167969-15.992188 15.992188-.007812 8.839844 7.160157 16 15.992188 16h272c8.832031 0 16-7.160156 16.007812-16 0-8.832032-7.167968-16-16.007812-16.007813h112c8.832031.007813 16.007812-7.152343 16-15.992187 0-8.832032-7.167969-16-16-16zm0 0" fill="#656d78"/><path d="m411.726562 387.816406c0-4.402344-3.597656-8-8-8-4.398437 0-8 3.597656-8 8 0 4.390625 3.601563 7.992188 8 7.992188 4.402344 0 8-3.609375 8-7.992188zm-20-24c19.921876 0 36 16.085938 36 36.007813 0 19.839843-16.070312 35.992187-36 35.992187-19.839843.007813-36-16.082031-35.992187-35.992187 0-19.9375 16.074219-36.007813 35.992187-36.007813zm0 0" fill="#a0d468"/><path d="m388.238281 424c-2.207031 0-4.03125-1.792969-4.03125-4-.007812-2.214844 1.746094-4 3.945313-4h.085937c2.195313 0 4 1.800781 4 4 0 2.207031-1.78125 4-4 4zm0 0" fill="#8cc152"/><g fill="#ffce54"><path d="m44.144531 48.054688c-2.199219 0-4.039062-1.789063-4.039062-3.992188.007812-2.207031 1.75-4.015625 3.949219-4.007812h.089843c2.199219.007812 4 1.792968 4 4 0 2.210937-1.800781 4.007812-4 4zm0 0"/><path d="m476.40625 24.03125c-2.199219 0-4.039062-1.792969-4.039062-3.992188.007812-2.207031 1.753906-4.015624 3.953124-4.007812h.085938c2.203125.007812 4 1.792969 4 4s-1.796875 4.007812-4 4zm0 0"/><path d="m44.238281 304.007812c-2.207031 0-4.039062-1.800781-4.03125-4-.007812-2.214843 1.746094-4.015624 3.9375-4h.09375c2.203125-.007812 4 1.792969 4 4 0 2.199219-1.78125 4-4 4zm0 0"/></g><path d="m275.847656 439.96875c-2.207031 0-4.039062-1.792969-4.039062-4 0-2.214844 1.75-4 3.953125-4h.085937c2.199219 0 4 1.800781 4 4 0 2.207031-1.792968 4-4 4zm0 0" fill="#fc6e51"/><path d="m316.238281 328c-2.207031 0-4.039062-1.792969-4.039062-4s1.753906-4 3.960937-4h.078125c2.203125 0 4 1.792969 4 4 0 2.214844-1.789062 4-4 4zm0 0" fill="#967adc"/><path d="m476.265625 279.984375c-2.210937-.015625-4.042969-1.800781-4.035156-4 0-2.214844 1.746093-4.015625 3.945312-4l.089844-.015625c2.207031.015625 4 1.800781 4 4.015625.007813 2.199219-1.792969 4-4 4zm0 0" fill="#fc6e51"/><path d="m372.238281 400.007812c-2.207031 0-4.039062-1.800781-4.039062-4.015624 0-2.199219 1.753906-3.992188 3.953125-3.992188l.085937.007812c2.203125-.007812 4 1.785157 3.992188 4 0 2.207032-1.78125 3.992188-3.992188 4zm0 0" fill="#8cc152"/><path d="m404 400c-6.617188-.007812-11.992188-5.382812-12-12 0-6.617188 5.382812-12 12-12 6.625 0 12 5.375 12 12 0 6.617188-5.382812 12-12 12zm0 0" fill="#8cc152"/><path d="m172.015625 464c-2.207031 0-4-1.792969-4-4v-32c0-2.207031 1.792969-4 4-4s4 1.792969 4 4v31.992188c-.007813 2.214843-1.792969 4-4 4.007812zm0 0" fill="#5d9cec"/><path d="m180.015625 448h-16c-2.207031 0-4-1.792969-4-4s1.792969-4 4-4h16c2.207031 0 4 1.792969 4 4 0 2.199219-1.792969 4-4 4zm0 0" fill="#5d9cec"/><path d="m228.070312 39.992188c-2.207031.007812-4-1.785157-4-4v-31.992188c0-2.199219 1.792969-4 4-4 2.210938 0 4 1.800781 4 4v31.992188c0 2.207031-1.789062 4-4 4zm0 0" fill="#a0d468"/><path d="m236.070312 24h-16c-2.199218 0-4-1.792969-4-4s1.800782-4 4-4h16c2.210938 0 4 1.792969 4 4 0 2.199219-1.789062 4-4 4zm0 0" fill="#a0d468"/><path d="m12.007812 224c-2.214843 0-4.007812-1.792969-4-4l-.007812-32c0-2.207031 1.792969-4 4-4s4 1.792969 4 4l.007812 32c0 2.207031-1.792968 4-4 4zm0 0" fill="#fc6e51"/><path d="m20.007812 208h-16.007812c-2.207031 0-4-1.792969-4-4 0-2.214844 1.792969-4 4-4.007812h16c2.207031.015624 4 1.792968 4 4 .007812 2.214843-1.785156 4.007812-3.992188 4.007812zm0 0" fill="#fc6e51"/><path d="m141.351562 123.414062c1.359376 1.363282 2.472657 2.808594 3.441407 4.402344-3.128907 5.199219-8.242188 11.769532-14.722657 18.238282-6.484374 6.488281-13.046874 11.601562-18.246093 14.730468-1.585938-.96875-3.03125-2.097656-4.390625-3.457031-9.363282-9.359375-9.363282-24.558594 0-33.914063 9.359375-9.351562 24.558594-9.351562 33.917968 0zm0 0" fill="#967adc"/><path d="m144.792969 127.816406c5.75 9.28125 4.558593 21.519532-3.441407 29.519532-7.992187 8-20.246093 9.191406-29.527343 3.449218 5.199219-3.128906 11.769531-8.242187 18.246093-14.730468 6.472657-6.480469 11.59375-13.039063 14.722657-18.238282zm0 0" fill="#967adc"/><path d="m103.367188 167.328125c-1.847657 0-3.488282-.550781-4.773438-1.839844-1.5625-1.558593-1.5625-4.097656 0-5.65625 1.375-1.382812 3.527344-1.535156 5.085938-.464843 2.558593-.160157 11.65625-4.984376 23.183593-16.503907 11.519531-11.519531 16.351563-20.625 16.503907-23.199219-1.070313-1.535156-.917969-3.703124.480468-5.089843 1.558594-1.558594 4.097656-1.558594 5.648438 0 8.078125 8.082031-12.71875 29.699219-16.96875 33.953125-3.574219 3.5625-19.398438 18.792968-29.160156 18.800781zm0 0" fill="#ac92ec"/><path d="m127.335938 354.40625c4.726562 4.640625 4.640624 12.234375 0 16.96875-4.710938 4.640625-51.910157 44.234375-56.550782 39.59375-4.722656-4.710938 34.871094-51.921875 39.597656-56.5625 4.640626-4.71875 12.242188-4.71875 16.953126 0zm0 0" fill="#ffce54"/><path d="m127.335938 371.375c4.640624-4.734375 4.726562-12.328125 0-16.96875-4.710938-4.71875-12.3125-4.71875-16.953126 0-4.726562 4.640625-44.320312 51.851562-39.597656 56.5625 4.640625 4.640625 51.839844-34.953125 56.550782-39.59375zm-79.191407 62.234375c-14.082031-14.082031 31.191407-82.160156 45.28125-96.160156 14-14.082031 36.796875-14.082031 50.871094 0 14.085937 14.078125 14.085937 36.796875 0 50.871093-14.082031 14.085938-82.082031 59.289063-96.152344 45.289063zm0 0" fill="#fc6e51"/><path d="m353.257812 59.839844c28.238282-28.3125 79.199219-33.917969 90.484376-22.640625 11.363281 11.359375 11.363281 56.5625-22.636719 90.5625l-5.601563-5.671875-56.640625-56.5625-9.917969-1.359375c1.839844-1.839844 3.269532-3.28125 4.3125-4.328125zm0 0" fill="#ed5564"/><path d="m353.257812 127.769531c9.359376 9.359375 9.359376 24.558594 0 33.917969-9.363281 9.359375-24.554687 9.359375-34 0-9.363281-9.359375-9.363281-24.558594.007813-33.917969 9.4375-9.441406 24.628906-9.441406 33.992187 0zm0 0" fill="#5d9cec"/><path d="m296.710938 184.328125c9.351562 9.359375 9.351562 24.558594-.007813 33.917969-9.445313 9.363281-24.558594 9.363281-34 0-9.367187-9.359375-9.367187-24.550782 0-33.917969 9.441406-9.359375 24.5625-9.359375 34.007813 0zm0 0" fill="#5d9cec"/><path d="m197.976562 210.097656 2.558594 2.542969c-19.511718 19.457031-36.878906 36.816406-49.199218 49.191406l-.078126-.070312c-8-13.515625-46.640624-20.5625-46.640624-20.5625 56.558593-56.558594 93.359374-31.101563 93.359374-31.101563zm0 0" fill="#e6e9ed"/><path d="m271.503906 283.6875s25.511719 36.800781-31.046875 93.28125c0 0-7.351562-40.082031-21.441406-47.128906 12.3125-12.3125 29.761719-29.75 49.359375-49.28125zm0 0" fill="#ccd1d9"/><path d="m200.535156 348.328125-11.277344-11.28125-5.761718 5.6875s-5.601563 5.59375-28.238282-17.046875c-22.640624-22.558594-16.960937-28.230469-16.960937-28.230469l5.679687-5.609375-11.359374-11.359375s7.136718-7.113281 18.71875-18.648437c12.320312-12.382813 29.6875-29.742188 49.199218-49.191406 55.039063-55.113282 131.121094-131.183594 152.722656-152.800782l5.597657 5.6875 56.640625 56.5625 5.601562 5.671875c-17.136718 17.125-94.402344 94.40625-152.722656 152.796875-19.597656 19.53125-37.046875 36.96875-49.359375 49.28125-11.511719 11.527344-18.480469 18.480469-18.480469 18.480469zm152.722656-186.640625c9.359376-9.359375 9.359376-24.558594 0-33.917969-9.363281-9.441406-24.554687-9.441406-33.992187 0-9.371094 9.359375-9.371094 24.558594-.007813 33.917969 9.445313 9.359375 24.636719 9.359375 34 0zm-56.554687 56.558594c9.359375-9.359375 9.359375-24.558594.007813-33.917969-9.445313-9.359375-24.566407-9.359375-34.007813 0-9.367187 9.367187-9.367187 24.558594 0 33.917969 9.441406 9.363281 24.554687 9.363281 34 0zm0 0" fill="#f5f7fa"/><path d="m166.535156 318.40625c-1.023437 0-2.046875-.390625-2.832031-1.167969-1.558594-1.558593-1.558594-4.09375 0-5.652343l67.839844-67.84375c1.5625-1.558594 4.097656-1.558594 5.65625 0 1.5625 1.5625 1.5625 4.097656 0 5.65625l-67.839844 67.839843c-.773437.777344-1.792969 1.167969-2.824219 1.167969zm0 0" fill="#ccd1d9"/><path d="m143.976562 291.839844-5.679687 5.609375s-5.679687 5.671875 16.960937 28.230469c22.636719 22.640624 28.238282 17.046874 28.238282 17.046874l5.71875-5.648437zm0 0" fill="#e6e9ed"/></svg>